<!-- icon666.com - MILLIONS vector ICONS FREE --><svg id="a" viewBox="0 0 24 24" xmlns="http://www.w3.org/2000/svg"><path d="m22 12c0 5.5228-4.4772 10-10 10s-10-4.4772-10-10 4.4772-10 10-10 10 4.4772 10 10z" fill="#f87171"></path><path d="m12.5 6.75v7c0 .2764-.2236.5-.5.5s-.5-.2236-.5-.5v-7c0-.2764.2236-.5.5-.5s.5.2236.5.5zm-.5 9c-.5522 0-1 .4476-1 1s.4478 1 1 1 1-.4478 1-1-.4478-1-1-1z" fill="#fff"></path><path d="m12 1.5c-5.7896 0-10.5 4.71-10.5 10.5s4.7104 10.5 10.5 10.5 10.5-4.71 10.5-10.5-4.71-10.5-10.5-10.5zm0 20c-5.2383 0-9.5-4.2617-9.5-9.5s4.2617-9.5 9.5-9.5 9.5 4.2617 9.5 9.5-4.2617 9.5-9.5 9.5z" fill="#0f172a"></path></svg>